# xmcd
#
# Track frame offsets:
#	150
#	14015
#	26765
#	38865
#	51465
#	65757
#	78212
#	91307
#	102365
#	114502
#	126337
#	139870
#	152907
#	165067
#	179335
#	191402
#	204440
#	216172
#	228580
#	240700
#	252545
#	264092
#	274510
#	286385
#	299787
#
# Disc length: 4169 seconds
#
# Revision: 2
# Processed by: cddbd v1.4PL0 Copyright (c) Steve Scherf et al.
# Submitted via: Gronk 1.4
#
DISCID=76104719
DTITLE=Eddie Arnold - Early Hits of The Tennessee Ployboy
DYEAR=1900
DGENRE=country
TTITLE0=Cattle Call
TTITLE1=Each Minute Seems a Million Years
TTITLE2=I Couldn't Believe It Was True
TTITLE3=What Is Life Without Love?
TTITLE4=That's How Much I Love You
TTITLE5=Chained To a Memory
TTITLE6=To My Sorrow
TTITLE7=It's a Sin
TTITLE8=I'll Hold You In My Heart
TTITLE9=Bouquet of Roses
TTITLE10=What A Fool I Was
TTITLE11=Then I Turned and Walked Slowly Away
TTITLE12=Texarkana Baby
TTITLE13=My Daddy Is Only a Picture
TTITLE14=There's Not a Thing I Wouldn't Do For You
TTITLE15=Anytime
TTITLE16=Heart Full of Love, A
TTITLE17=Just a Little Lovin' (Will Go a Long, Long Way)
TTITLE18=Echo of Your Footsteps, The
TTITLE19=Don't Rob Another Man's Castle
TTITLE20=Little Angel With The Dirty Face
TTITLE21=One Kiss Too Many
TTITLE22=I'm Throwing Rice
TTITLE23=Why Should I Cry?
TTITLE24=Take Me In Your Arms and Hold Me
EXTD=
EXTT0=
EXTT1=
EXTT2=
EXTT3=
EXTT4=
EXTT5=
EXTT6=
EXTT7=
EXTT8=
EXTT9=
EXTT10=
EXTT11=
EXTT12=
EXTT13=
EXTT14=
EXTT15=
EXTT16=
EXTT17=
EXTT18=
EXTT19=
EXTT20=
EXTT21=
EXTT22=
EXTT23=
EXTT24=
PLAYORDER=
